#!OML:ASF E:\acrobat2\Project_11_07_03\Capture day 1\Session 1\Acrobat.ASF
:FULLY-SPECIFIED
:DEGREES
129
root 8.28751 18.0534 -0.281888 2.2316 -57.5335 2.02773
lowerback -6.51894 1.37267 2.06428
upperback -0.5333 1.71807 -1.49233
thorax 3.21146 0.888698 -2.54277
lowerneck -0.52986 -0.111678 -0.739552
upperneck 7.66346 -0.413972 3.39589
head 2.52529 -0.154183 1.2008
rclavicle 5.95889e-014 5.76476e-015
rhumerus -39.8105 -12.22 -80.5687
rradius 25.5611
rwrist 3.88271
rhand -9.05959 -39.4169
rfingers 7.12502
rthumb 16.8891 -68.7025
lclavicle 5.95889e-014 5.76476e-015
lhumerus -32.1035 -2.48053 84.0282
lradius 23.391
lwrist 10.4025
lhand -2.34755 -13.6376
lfingers 7.12502
lthumb 23.34 14.9674
rfemur 9.79042 12.2771 17.5825
rtibia -2.80895
rfoot -20.1231 -29.1248
rtoes -11.1479
lfemur 1.71988 -4.67916 -9.32133
ltibia -1.82385
lfoot -9.70968 4.43288
ltoes 24.902
130
root 8.2836 18.0459 -0.278823 2.77001 -57.7689 1.22968
lowerback -6.29842 1.4555 2.64288
upperback -0.541094 1.79033 -1.42776
thorax 3.10016 0.931113 -2.79969
lowerneck -0.489366 0.00965311 -0.466309
upperneck 7.67043 -0.244913 3.18235
head 2.51334 -0.0686495 1.08815
rclavicle 6.50187e-014 -4.57205e-015
rhumerus -39.7945 -12.1639 -80.6849
rradius 25.4815
rwrist 3.85974
rhand -9.06679 -39.4374
rfingers 7.12502
rthumb 16.8821 -68.7236
lclavicle 6.50187e-014 -4.57205e-015
lhumerus -32.0307 -1.91169 83.7382
lradius 23.0184
lwrist 9.62805
lhand -2.1391 -13.8616
lfingers 7.12502
lthumb 23.54 14.7178
rfemur 9.73186 12.1886 18.0655
rtibia -2.50263
rfoot -19.8568 -28.8859
rtoes -12.0177
lfemur 1.83488 -4.32656 -8.68133
ltibia -1.62237
lfoot -9.78149 4.22122
ltoes 24.1532
131
root 8.27582 18.043 -0.271126 2.93653 -57.923 0.97858
lowerback -6.29005 1.46587 2.8967
upperback -0.525694 1.78575 -1.39172
thorax 3.11781 0.932644 -2.90576
lowerneck -0.420193 0.247832 -0.188399
upperneck 7.63602 0.0727201 3.10097
head 2.48146 0.0938759 1.02037
rclavicle -6.49393e-014 1.13307e-014
rhumerus -39.7376 -12.0671 -80.7246
rradius 25.4134
rwrist 3.92211
rhand -9.00318 -39.6047
rfingers 7.12502
rthumb 16.9434 -68.8857
lclavicle -6.49393e-014 1.13307e-014
lhumerus -31.845 -1.14861 83.4473
lradius 22.4795
lwrist 8.69477
lhand -2.11577 -14.1287
lfingers 7.12502
lthumb 23.5624 14.4479
rfemur 9.63032 11.9527 18.1467
rtibia -2.24288
rfoot -19.5382 -28.6778
rtoes -13.3694
lfemur 1.76231 -3.78566 -8.42375
ltibia -1.23245
lfoot -9.70845 3.76134
ltoes 23.8053
132
root 8.26578 18.0478 -0.260837 2.44907 -57.9543 1.61034
lowerback -6.45741 1.4214 2.68048
upperback -0.506322 1.74074 -1.50261
thorax 3.22532 0.909606 -2.89944
lowerneck -0.402089 0.504303 -0.174486
upperneck 7.59156 0.407876 3.23959
head 2.45742 0.264199 1.06936
rclavicle 8.11676e-014 -9.93923e-016
rhumerus -39.7087 -11.987 -80.8298
rradius 25.3892
rwrist 3.85339
rhand -9.02813 -39.6575
rfingers 7.12502
rthumb 16.9194 -68.9406
lclavicle 8.11676e-014 -9.93923e-016
lhumerus -31.7228 -1.12004 83.3697
lradius 22.1505
lwrist 8.45641
lhand -2.09962 -14.1669
lfingers 7.12502
lthumb 23.5778 14.4077
rfemur 9.45467 11.4153 17.547
rtibia -2.01444
rfoot -19.17 -28.2943
rtoes -14.7582
lfemur 1.52932 -3.36321 -8.82144
ltibia -0.761721
lfoot -9.66945 3.26835
ltoes 24.011
133
root 8.25573 18.0547 -0.253054 1.94808 -57.9143 2.38015
lowerback -6.62585 1.38153 2.34692
upperback -0.556466 1.71166 -1.64278
thorax 3.26016 0.890539 -2.85679
lowerneck -0.517043 0.772533 -0.0667425
upperneck 7.72286 0.762601 3.19016
head 2.51521 0.444387 1.04506
rclavicle 2.72314e-014 -7.15625e-015
rhumerus -39.7342 -11.9213 -80.9618
rradius 25.3711
rwrist 3.68152
rhand -9.01264 -39.3551
rfingers 7.12502
rthumb 16.9343 -68.6369
lclavicle 2.72314e-014 -7.15625e-015
lhumerus -31.7247 -1.92193 83.5632
lradius 21.9426
lwrist 8.81534
lhand -2.21781 -14.1226
lfingers 7.12502
lthumb 23.4645 14.4665
rfemur 9.17054 10.737 16.8158
rtibia -1.78067
rfoot -18.7814 -27.843
rtoes -16.2022
lfemur 1.17205 -3.31678 -9.37891
ltibia -0.303018
lfoot -9.87486 2.93513
ltoes 25.0591
134
root 8.24274 18.0579 -0.246581 2.41168 -58.1466 1.97106
lowerback -6.66125 1.51494 2.67128
upperback -0.664579 1.86366 -1.63039
thorax 3.18851 0.967847 -3.01255
lowerneck -0.655555 0.964937 0.168107
upperneck 7.93629 1.02053 2.97379
head 2.60797 0.576083 0.944633
rclavicle -2.38507e-014 9.54166e-015
rhumerus -39.8979 -12.3043 -80.7486
rradius 25.3079
rwrist 3.91189
rhand -8.7189 -38.7545
rfingers 7.12502
rthumb 17.217 -68.0118
lclavicle -2.38507e-014 9.54166e-015
lhumerus -31.7368 -2.71591 83.7154
lradius 21.5997
lwrist 9.08657
lhand -2.34258 -14.1345
lfingers 7.12502
lthumb 23.3448 14.4699
rfemur 8.8628 10.1411 16.834
rtibia -1.53386
rfoot -18.2358 -27.2627
rtoes -17.9345
lfemur 0.961817 -3.30375 -9.09562
ltibia 0.068917
lfoot -10.297 2.742
ltoes 26.9991
135
root 8.22811 18.0614 -0.240105 2.91162 -58.5726 1.47302
lowerback -6.60844 1.68177 3.03882
upperback -0.78665 2.05813 -1.57096
thorax 3.05769 1.06499 -3.14204
lowerneck -0.733813 1.22148 0.362496
upperneck 8.0727 1.36999 2.74558
head 2.66429 0.750683 0.848687
rclavicle -2.72055e-014 1.78906e-015
rhumerus -40.1253 -12.2679 -80.5663
rradius 25.3943
rwrist 3.75283
rhand -8.37212 -38.3
rfingers 7.12502
rthumb 17.5508 -67.5278
lclavicle -2.72055e-014 1.78906e-015
lhumerus -31.8316 -2.59038 83.5452
lradius 21.379
lwrist 8.83645
lhand -2.21976 -14.206
lfingers 7.12502
lthumb 23.4626 14.3833
rfemur 8.60787 9.85705 16.9657
rtibia -1.31575
rfoot -17.8192 -26.6996
rtoes -19.0839
lfemur 0.771753 -2.75288 -8.65553
ltibia 0.56742
lfoot -10.4346 2.50152
ltoes 26.7456
